<svg width="28" height="31" viewBox="0 0 28 31" fill="none" xmlns="http://www.w3.org/2000/svg">
<path id="Vector" d="M14.0002 0C8.47442 0 4.66693 3.7944 4.66693 9.3C4.66693 10.0518 4.66693 12.3535 4.66693 12.4C4.66693 12.8991 4.414 13.2385 3.54881 13.95C3.45065 14.0306 3.03922 14.3824 2.91695 14.4832C0.948575 16.1045 -0.0202135 17.6235 0.000319607 20.15C0.0210083 22.7044 2.11072 24.7705 4.66693 24.8H9.60732C9.60732 24.8 9.33354 25.747 9.33354 26.35C9.33354 28.9183 11.4226 31 14.0002 31C16.5777 31 18.6668 28.9183 18.6668 26.35C18.6668 25.747 18.4054 24.8 18.4054 24.8H23.3334C25.8845 24.8093 28.0031 22.7153 28 20.15C27.9969 17.6421 27.0262 16.0967 25.0834 14.4832C24.9558 14.3762 24.5047 14.0337 24.402 13.95C23.5558 13.2463 23.3334 12.8929 23.3334 12.4C23.3334 10.4625 23.3334 9.3 23.3334 9.3C23.3334 3.7944 19.5254 0 14.0002 0ZM14.0002 3.1C17.8081 3.1 20.2223 5.5056 20.2223 9.3C20.2223 9.3 20.2223 10.4625 20.2223 12.4C20.2223 14.0461 20.9192 15.0846 22.4094 16.3231C22.5276 16.4207 23.0269 16.8113 23.1389 16.9043C24.4425 17.9878 24.8874 18.7209 24.8889 20.15C24.8905 20.9932 24.1656 21.7031 23.3334 21.7C23.0394 21.6985 18.5112 21.6985 14.0002 21.7C9.48956 21.7015 4.99748 21.7031 4.66693 21.7C3.79863 21.6891 3.11839 21.0103 3.11139 20.15C3.09988 18.724 3.54461 17.9893 4.86137 16.9043C4.96886 16.816 5.42883 16.4161 5.54192 16.3231C7.05577 15.0769 7.77801 14.0616 7.77801 12.4C7.77801 12.3535 7.77801 10.0518 7.77801 9.3C7.77801 5.5056 10.1927 3.1 14.0002 3.1ZM14.0002 24.8C14.8588 24.8 15.5557 25.4944 15.5557 26.35C15.5557 27.2056 14.8588 27.9 14.0002 27.9C13.1415 27.9 12.4446 27.2056 12.4446 26.35C12.4446 25.4944 13.1415 24.8 14.0002 24.8Z" fill="#8C8C8C"/>
</svg>
