<svg width="16" height="16" viewBox="0 0 16 16" fill="none" xmlns="http://www.w3.org/2000/svg">
<path id="Vector" d="M10.6667 0C9.53973 0 8.48889 0.739568 8.16098 1.77957L0.888889 1.77778C0.397956 1.77778 0 2.176 0 2.66667C0 3.15733 0.397956 3.55556 0.888889 3.55556L8.16098 3.55469C8.55929 4.64358 9.53973 5.33333 10.6667 5.33333C11.7936 5.33333 12.7841 4.6418 13.1893 3.54758L15.1111 3.55556C15.602 3.55556 16 3.15733 16 2.66667C16 2.176 15.602 1.77778 15.1111 1.77778H13.1818C12.7538 0.694222 11.7936 0 10.6667 0ZM10.6667 1.77778C11.1576 1.77778 11.5556 2.176 11.5556 2.66667C11.5556 3.15733 11.1576 3.55556 10.6667 3.55556C10.1757 3.55556 9.77778 3.15733 9.77778 2.66667C9.77778 2.176 10.1757 1.77778 10.6667 1.77778ZM5.33333 5.33333C4.16178 5.33333 3.18116 6.06223 2.82311 7.1129C2.69813 7.1209 0.888889 7.11111 0.888889 7.11111C0.397956 7.11111 0 7.50933 0 8C0 8.49067 0.397956 8.88889 0.888889 8.88889C0.888889 8.88889 2.71324 8.87023 2.82693 8.88178C3.18498 9.93245 4.16178 10.6667 5.33333 10.6667C6.46027 10.6667 7.42595 9.97599 7.84835 8.89155L15.1111 8.88889C15.602 8.88889 16 8.49067 16 8C16 7.50933 15.602 7.11111 15.1111 7.11111L7.84373 7.10314C7.45413 6.04269 6.46027 5.33333 5.33333 5.33333ZM5.33333 7.11111C5.82427 7.11111 6.22222 7.50933 6.22222 8C6.22222 8.49067 5.82427 8.88889 5.33333 8.88889C4.8424 8.88889 4.44444 8.49067 4.44444 8C4.44444 7.50933 4.8424 7.11111 5.33333 7.11111ZM10.6667 10.6667C9.53973 10.6667 8.50889 11.4089 8.16036 12.4355L0.888889 12.4444C0.397956 12.4444 0 12.8427 0 13.3333C0 13.824 0.397956 14.2222 0.888889 14.2222L8.1472 14.2231C8.516 15.2764 9.53973 16 10.6667 16C11.7936 16 12.7652 15.2951 13.1933 14.2231L15.1111 14.2222C15.602 14.2222 16 13.824 16 13.3333C16 12.8427 15.602 12.4444 15.1111 12.4444L13.1852 12.4391C12.8015 11.3876 11.7936 10.6667 10.6667 10.6667ZM10.6667 12.4444C11.1576 12.4444 11.5556 12.8427 11.5556 13.3333C11.5556 13.824 11.1576 14.2222 10.6667 14.2222C10.1757 14.2222 9.77778 13.824 9.77778 13.3333C9.77778 12.8427 10.1757 12.4444 10.6667 12.4444Z" fill="#6B6B6B"/>
</svg>
