<svg width="18" height="18" viewBox="0 0 18 18" fill="none" xmlns="http://www.w3.org/2000/svg">
<g id="Star 2">
<path id="Vector" d="M12.1234 3.20669C11.1403 0.181102 6.85992 0.181102 5.87684 3.20669C5.58781 4.09625 4.75885 4.69853 3.82351 4.69853C0.642211 4.69853 -0.680508 8.76944 1.89321 10.6394C2.64992 11.1891 2.96656 12.1636 2.67752 13.0532C1.69445 16.0788 5.15737 18.5948 7.73109 16.7248C8.48779 16.1751 9.51245 16.1751 10.2692 16.7248C12.8429 18.5948 16.3058 16.0788 15.3227 13.0532C15.0337 12.1636 15.3503 11.1891 16.107 10.6394C18.6808 8.76944 17.358 4.69853 14.1767 4.69853C13.2414 4.69853 12.4124 4.09625 12.1234 3.20669Z" fill="#FE7F26"/>
</g>
</svg>
