<svg width="32" height="32" viewBox="0 0 32 32" fill="none" xmlns="http://www.w3.org/2000/svg">
<g id="basil:add-solid">
<path id="Vector" fill-rule="evenodd" clip-rule="evenodd" d="M9.79339 5.356C13.9185 4.89875 18.0816 4.89875 22.2067 5.356C24.4907 5.612 26.3334 7.41067 26.6014 9.70267C27.0907 13.8866 27.0907 18.1134 26.6014 22.2973C26.3334 24.5893 24.4907 26.388 22.2067 26.644C18.0816 27.1013 13.9185 27.1013 9.79339 26.644C7.50939 26.388 5.66672 24.5893 5.39872 22.2973C4.90941 18.1138 4.90941 13.8875 5.39872 9.704C5.53428 8.59049 6.04189 7.55539 6.8393 6.76646C7.6367 5.97752 8.67716 5.48099 9.79205 5.35733M16.0001 9.34267C16.2653 9.34267 16.5196 9.44802 16.7072 9.63556C16.8947 9.82309 17.0001 10.0774 17.0001 10.3427V15H21.6574C21.9226 15 22.177 15.1054 22.3645 15.2929C22.552 15.4804 22.6574 15.7348 22.6574 16C22.6574 16.2652 22.552 16.5196 22.3645 16.7071C22.177 16.8946 21.9226 17 21.6574 17H17.0001V21.6573C17.0001 21.9225 16.8947 22.1769 16.7072 22.3644C16.5196 22.552 16.2653 22.6573 16.0001 22.6573C15.7348 22.6573 15.4805 22.552 15.2929 22.3644C15.1054 22.1769 15.0001 21.9225 15.0001 21.6573V17H10.3427C10.0775 17 9.82315 16.8946 9.63561 16.7071C9.44808 16.5196 9.34272 16.2652 9.34272 16C9.34272 15.7348 9.44808 15.4804 9.63561 15.2929C9.82315 15.1054 10.0775 15 10.3427 15H15.0001V10.3427C15.0001 10.0774 15.1054 9.82309 15.2929 9.63556C15.4805 9.44802 15.7348 9.34267 16.0001 9.34267Z" fill="black"/>
</g>
</svg>
