<svg width="22" height="22" viewBox="0 0 22 22" fill="none" xmlns="http://www.w3.org/2000/svg">
<path id="Vector" opacity="0.988987" d="M11 0C4.9247 0 0 4.9247 0 11C0 17.0753 4.9247 22 11 22C17.0753 22 22 17.0753 22 11C22 4.9247 17.0753 0 11 0ZM11 2.2C15.8598 2.2 19.8 6.1402 19.8 11C19.8 15.8598 15.8598 19.8 11 19.8C6.1402 19.8 2.2 15.8598 2.2 11C2.2 6.1402 6.1402 2.2 11 2.2ZM11 5.5C10.3928 5.5 9.9 5.9928 9.9 6.6C9.9 7.2072 10.3928 7.7 11 7.7C11.6072 7.7 12.1 7.2072 12.1 6.6C12.1 5.9928 11.6072 5.5 11 5.5ZM9.9 8.8C9.2928 8.8 8.8 9.2928 8.8 9.9C8.8 10.4302 9.19491 10.8262 9.69321 10.9318L9.04089 14.0932C8.78569 15.3703 9.6987 16.5 11 16.5H12.1C12.7072 16.5 13.2 16.0072 13.2 15.4C13.2 14.7928 12.7072 14.3 12.1 14.3H11.2409L12.0659 10.1068C12.2023 9.42589 11.6941 8.8 11 8.8C10.8614 8.8 10.0782 8.8 9.9 8.8Z" fill="#292D34"/>
</svg>
