<svg width="24" height="24" viewBox="0 0 24 24" fill="none" xmlns="http://www.w3.org/2000/svg">
<path d="M8.91919 2.25C8.06717 2.24994 7.54819 2.2499 7.10051 2.3208C4.64013 2.71049 2.71049 4.64013 2.3208 7.10051C2.2499 7.54819 2.24994 8.06717 2.25 8.91919L2.25 15.0808C2.24994 15.9328 2.2499 16.4518 2.3208 16.8995C2.71049 19.3599 4.64013 21.2895 7.10051 21.6792C7.54819 21.7501 8.06718 21.7501 8.91921 21.75L10 21.75C11.2936 21.75 12.4894 21.3219 13.4504 20.6C13.7816 20.3513 13.8485 19.8811 13.5997 19.5499C13.3509 19.2188 12.8808 19.1519 12.5496 19.4007C11.8393 19.9342 10.9576 20.25 10 20.25H9.00001C8.04234 20.25 7.65083 20.2477 7.33516 20.1977C5.51662 19.9097 4.09036 18.4834 3.80233 16.6649C3.75234 16.3492 3.75001 15.9577 3.75001 15L3.75001 9.00001C3.75001 8.04234 3.75234 7.65083 3.80233 7.33516C4.09036 5.51662 5.51662 4.09036 7.33516 3.80233C7.65083 3.75234 8.04234 3.75001 9.00001 3.75001H10C10.9576 3.75001 11.8393 4.06583 12.5496 4.59932C12.8808 4.84808 13.3509 4.78127 13.5997 4.45008C13.8485 4.11888 13.7816 3.64874 13.4504 3.39997C12.4894 2.67807 11.2936 2.25001 10 2.25001L8.91919 2.25Z" fill="#6B6B6B"/>
<path d="M17.466 7.41232C17.1414 7.15498 16.6697 7.20947 16.4123 7.53404C16.155 7.85861 16.2095 8.33034 16.534 8.58769L18.297 9.98554C19.001 10.5438 19.483 10.9274 19.8105 11.25L7.00001 11.25C6.58579 11.25 6.25001 11.5858 6.25001 12C6.25001 12.4142 6.58579 12.75 7.00001 12.75L19.8105 12.75C19.483 13.0727 19.001 13.4563 18.297 14.0145L16.534 15.4123C16.2095 15.6697 16.155 16.1414 16.4123 16.466C16.6697 16.7905 17.1414 16.845 17.466 16.5877L19.2648 15.1615C19.9372 14.6283 20.4922 14.1883 20.8875 13.7945C21.2932 13.3904 21.6295 12.9419 21.7208 12.3687C21.7402 12.2466 21.75 12.1234 21.75 12C21.75 11.8766 21.7402 11.7534 21.7208 11.6313C21.6295 11.0582 21.2932 10.6096 20.8875 10.2055C20.4922 9.81173 19.9373 9.37176 19.2648 8.83858L17.466 7.41232Z" fill="#6B6B6B"/>
</svg>
