<svg width="22" height="21" viewBox="0 0 22 21" fill="none" xmlns="http://www.w3.org/2000/svg">
<g id="Danger Triangle">
<g id="Vector">
<path d="M11.75 6C11.75 5.58579 11.4143 5.25 11 5.25C10.5858 5.25 10.25 5.58579 10.25 6V12C10.25 12.4142 10.5858 12.75 11 12.75C11.4143 12.75 11.75 12.4142 11.75 12V6Z" fill="#2D264B"/>
<path fill-rule="evenodd" clip-rule="evenodd" d="M13.3388 0.747113C11.8501 0.0842957 10.15 0.0842957 8.6613 0.747113C7.73048 1.16154 6.97882 1.95575 6.20259 3.05442C5.42881 4.14963 4.56226 5.65055 3.44277 7.58957L3.40186 7.66043C2.28236 9.59944 1.4158 11.1004 0.854218 12.3181C0.290856 13.5396 -0.0211207 14.5877 0.0853851 15.601C0.255725 17.2217 1.10575 18.694 2.42412 19.6518C3.24844 20.2507 4.31208 20.5046 5.65166 20.6275C6.98701 20.75 8.72011 20.75 10.9591 20.75H11.041C13.2799 20.75 15.0131 20.75 16.3484 20.6275C17.688 20.5046 18.7516 20.2507 19.576 19.6518C20.8943 18.694 21.7444 17.2217 21.9147 15.601C22.0212 14.5877 21.7092 13.5396 21.1459 12.3181C20.5843 11.1004 19.7177 9.59942 18.5982 7.66037L18.5573 7.58948C17.4378 5.65051 16.5713 4.14961 15.7975 3.05442C15.0213 1.95575 14.2696 1.16154 13.3388 0.747113ZM9.27141 2.11743C10.3718 1.62752 11.6283 1.62752 12.7287 2.11743C13.282 2.36379 13.8408 2.88446 14.5724 3.91996C15.3017 4.95228 16.1345 6.39321 17.2787 8.375C18.4229 10.3568 19.2544 11.7985 19.7837 12.9463C20.3147 14.0976 20.4862 14.8419 20.4229 15.4442C20.297 16.6421 19.6687 17.7303 18.6943 18.4383C18.2043 18.7943 17.474 19.0179 16.2114 19.1338C14.9527 19.2492 13.2884 19.25 11 19.25C8.71167 19.25 7.04738 19.2492 5.7887 19.1338C4.52612 19.0179 3.79581 18.7943 3.3058 18.4383C2.33135 17.7303 1.70307 16.6421 1.57717 15.4442C1.51386 14.8419 1.68537 14.0976 2.21634 12.9463C2.74568 11.7985 3.57717 10.3568 4.72135 8.375C5.86554 6.39321 6.69833 4.95228 7.42768 3.91997C8.15928 2.88446 8.71809 2.36379 9.27141 2.11743Z" fill="#2D264B"/>
<path d="M12.0001 15C12.0001 15.5523 11.5524 16 11.0001 16C10.4478 16 10.0001 15.5523 10.0001 15C10.0001 14.4477 10.4478 14 11.0001 14C11.5524 14 12.0001 14.4477 12.0001 15Z" fill="#2D264B"/>
</g>
</g>
</svg>
