<svg width="21" height="21" viewBox="0 0 21 21" fill="none" xmlns="http://www.w3.org/2000/svg">
<g id="Home 2">
<g id="Vector">
<path d="M8.63163 14.7785C8.24468 14.7785 7.93099 15.0922 7.93099 15.4791C7.93099 15.8661 8.24468 16.1798 8.63163 16.1798H12.3684C12.7553 16.1798 13.069 15.8661 13.069 15.4791C13.069 15.0922 12.7553 14.7785 12.3684 14.7785H8.63163Z" fill="#2D264B"/>
<path fill-rule="evenodd" clip-rule="evenodd" d="M10.6969 0.00361081C10.5657 -0.0012036 10.4343 -0.0012036 10.3031 0.00361081C9.43674 0.0353924 8.65663 0.329986 7.80128 0.820378C6.96773 1.29827 6.0081 1.99549 4.79051 2.88014L4.72432 2.92822C3.50671 3.81286 2.54706 4.51008 1.83497 5.15515C1.10427 5.8171 0.583024 6.46799 0.285083 7.28211C0.23995 7.40544 0.199354 7.53038 0.163378 7.65668C-0.0741099 8.49044 -0.0350024 9.3234 0.167071 10.2884C0.363995 11.2289 0.73055 12.357 1.19564 13.7884L1.22093 13.8662C1.686 15.2975 2.05255 16.4257 2.446 17.3022C2.84974 18.2017 3.30771 18.8986 3.98991 19.4335C4.09326 19.5146 4.19954 19.5918 4.30854 19.665C5.02811 20.1485 5.83239 20.3688 6.81262 20.4748C7.76787 20.5781 8.95405 20.5781 10.4591 20.5781H10.5409C12.046 20.5781 13.2321 20.5781 14.1874 20.4748C15.1676 20.3688 15.9719 20.1485 16.6915 19.665C16.8005 19.5918 16.9067 19.5146 17.0101 19.4335C17.6923 18.8986 18.1503 18.2017 18.554 17.3022C18.9475 16.4257 19.314 15.2975 19.7791 13.8661L19.8044 13.7883C20.2694 12.357 20.636 11.2288 20.8329 10.2884C21.035 9.3234 21.0741 8.49044 20.8366 7.65668C20.8006 7.53038 20.7601 7.40544 20.7149 7.28211C20.417 6.46799 19.8957 5.8171 19.165 5.15515C18.4529 4.51008 17.4933 3.81286 16.2757 2.92822L16.2095 2.88012C14.9919 1.99548 14.0323 1.29827 13.1987 0.820378C12.3434 0.329986 11.5633 0.0353924 10.6969 0.00361081ZM10.3544 1.40395C10.4515 1.40039 10.5486 1.40039 10.6456 1.40395C11.2018 1.42435 11.7558 1.60836 12.5018 2.03603C13.262 2.47188 14.161 3.12388 15.4189 4.03784C16.6769 4.95181 17.5748 5.60534 18.2242 6.19366C18.8615 6.77095 19.2077 7.24098 19.399 7.76369C19.4324 7.85485 19.4624 7.94719 19.4889 8.04055C19.6414 8.57588 19.6376 9.15963 19.4614 10.0012C19.2818 10.8589 18.9395 11.9154 18.459 13.3942C17.9785 14.8731 17.6344 15.929 17.2756 16.7284C16.9235 17.5129 16.5835 17.9874 16.1454 18.3308C16.069 18.3907 15.9905 18.4478 15.9099 18.5019C15.4479 18.8124 14.8916 18.9892 14.0367 19.0816C13.1655 19.1759 12.0549 19.1768 10.5 19.1768C8.94507 19.1768 7.83452 19.1759 6.96331 19.0816C6.10844 18.9892 5.55208 18.8124 5.09008 18.5019C5.00951 18.4478 4.93095 18.3907 4.85457 18.3308C4.41655 17.9874 4.0765 17.5129 3.7244 16.7284C3.36556 15.929 3.02148 14.8731 2.54098 13.3942C2.06048 11.9154 1.7182 10.8589 1.5386 10.0012C1.36237 9.15963 1.35857 8.57588 1.51105 8.04055C1.53764 7.9472 1.56765 7.85485 1.60101 7.76369C1.7923 7.24098 2.1385 6.77095 2.77575 6.19366C3.42519 5.60534 4.32309 4.95181 5.58105 4.03784C6.83902 3.12388 7.73803 2.47188 8.49824 2.03603C9.24419 1.60836 9.7982 1.42435 10.3544 1.40395Z" fill="#2D264B"/>
</g>
</g>
</svg>
