<svg width="20" height="18" viewBox="0 0 20 18" fill="none" xmlns="http://www.w3.org/2000/svg">
<path id="Vector" d="M13.5 0C11.0147 0 9 2.015 9 4.5C9 6.985 11.0147 9 13.5 9C15.9853 9 18 6.985 18 4.5C18 2.015 15.9853 0 13.5 0ZM6 1C3.7909 1 2 2.791 2 5C2 7.209 3.7909 9 6 9C6.8294 9 7.615 8.74701 8.2812 8.28101C8.7339 7.96501 8.8476 7.328 8.5312 6.875C8.2148 6.422 7.6089 6.34001 7.1562 6.65601C6.8233 6.88901 6.4162 7 6 7C4.8954 7 4 6.105 4 5C4 3.895 4.8954 3 6 3C6.3262 3 6.6246 3.07199 6.9062 3.21899C7.3962 3.47399 8.0264 3.30201 8.2812 2.81201C8.5361 2.32301 8.3337 1.69199 7.8438 1.43799C7.2787 1.14399 6.6494 1 6 1ZM13.5 2C14.8807 2 16 3.119 16 4.5C16 5.881 14.8807 7 13.5 7C12.1193 7 11 5.881 11 4.5C11 3.119 12.1193 2 13.5 2ZM3.0625 10.344C1.2284 11.101 0 12.956 0 15V17C0 17.552 0.4477 18 1 18H5C5.5523 18 6 17.552 6 17C6 16.448 5.5523 16 5 16H2V15C2 13.876 2.6667 12.844 3.433 12.39C4.1537 12.694 4.9161 12.924 5.5941 12.981C6.1445 13.028 6.6408 12.613 6.6875 12.062C6.7342 11.512 6.3365 11.046 5.7862 10.999C5.3472 10.962 4.8674 10.83 4.3125 10.594C4.1785 10.537 4.1007 10.492 3.8438 10.375C3.5919 10.26 3.3183 10.238 3.0625 10.344ZM10.0625 10.344C8.2284 11.101 7 12.956 7 15V17C7 17.552 7.4477 18 8 18H19C19.5523 18 20 17.552 20 17V15C20 13.004 18.7648 11.194 16.9375 10.406C16.6803 10.295 16.3806 10.292 16.125 10.406C15.2402 10.803 14.3782 11 13.5 11C12.6248 11 11.7598 10.792 10.8438 10.375C10.5919 10.26 10.3183 10.238 10.0625 10.344ZM10.447 12.39C11.3918 12.748 12.5309 13 13.5 13C14.4615 13 15.5535 12.765 16.4792 12.423C17.3818 12.937 18 13.899 18 15V16H9V15C9 13.835 9.6559 12.853 10.447 12.39Z" fill="#6B6B6B"/>
</svg>
