<svg width="19" height="19" viewBox="0 0 19 19" fill="none" xmlns="http://www.w3.org/2000/svg">
<path id="Vector" d="M12.3492 0C12.0972 0 11.8381 0.131574 11.6562 0.305706C10.1848 1.71435 9.73426 2.89234 10.2722 4.50599C9.01702 5.46794 8.22424 5.70402 6.65731 5.70402C4.51527 5.70402 3.1167 5.96222 2.16506 6.91306V6.9427C1.27461 7.83265 1.27461 9.25763 2.16506 10.1468L4.82558 12.8277L0.292475 17.3582C-0.0785453 17.7287 -0.106193 18.3509 0.264828 18.7214C0.635943 19.0929 1.2596 19.0929 1.63072 18.7214L6.18064 14.171L8.84562 16.8224C9.73617 17.7125 11.1617 17.7125 12.0523 16.8224H12.082C13.034 15.8715 13.2993 14.6526 13.2993 12.3422C13.2993 10.8736 13.6008 9.83713 14.5135 8.74654C16.2702 9.26143 17.2923 8.76839 18.7328 7.3285C18.911 7.15037 19 6.89787 19 6.64602C19 6.31191 18.9156 5.79978 18.7031 5.16252C18.3608 4.13644 17.7714 3.10409 16.8326 2.16588C15.8937 1.22776 14.8605 0.638774 13.8337 0.296683C13.196 0.0842655 12.6835 0 12.3492 0ZM12.7172 1.95185C13.7266 2.13919 14.7429 2.80731 15.4667 3.53072C16.1906 4.25405 16.8071 5.14 17.0622 6.30117C16.1553 7.17098 15.6007 7.23977 14.6937 6.7624C14.3319 6.57192 13.8735 6.63928 13.5843 6.92826C11.8542 8.65724 11.3991 10.2257 11.3991 12.3422C11.3991 14.1852 11.2907 14.8702 10.7161 15.4877C10.5539 15.6625 10.3302 15.6359 10.1818 15.4877L3.50121 8.81209C3.3528 8.66389 3.35736 8.47389 3.47698 8.32854C3.81637 7.9153 4.57171 7.5943 6.64847 7.59544C9.13113 7.59687 10.4509 6.95762 12.082 5.42956C12.3711 5.14058 12.443 4.69731 12.2601 4.33176C11.7715 3.35526 11.8477 2.84056 12.7172 1.95185Z" fill="#292D34"/>
</svg>
